<?xml version="1.0" encoding="utf-8"?>
<svg fill="white" version="1.1" xmlns="http://www.w3.org/2000/svg" xmlns:xlink="http://www.w3.org/1999/xlink" x="0px" y="0px" viewBox="0 0 1000 1000" enable-background="new 0 0 1000 1000" xml:space="preserve">
<g><g><polygon points="425.3,267 362.3,330 551,518.8 377.8,692 441.1,755.2 677.3,519 "/><path d="M990,500c0-270.6-219.4-490-490-490C229.4,10,10,229.4,10,500c0,270.6,219.4,490,490,490C770.6,990,990,770.6,990,500z M54.5,500C54.5,254,254,54.5,500,54.5S945.5,254,945.5,500S746,945.5,500,945.5S54.5,746,54.5,500z"/></g><g></g><g></g><g></g><g></g><g></g><g></g><g></g><g></g><g></g><g></g><g></g><g></g><g></g><g></g><g></g></g>
</svg>
