<?xml version="1.0" encoding="utf-8"?>
<!-- Svg Vector Icons : http://www.onlinewebfonts.com/icon -->
<!DOCTYPE svg PUBLIC "-//W3C//DTD SVG 1.1//EN" "http://www.w3.org/Graphics/SVG/1.1/DTD/svg11.dtd">
<svg version="1.1" xmlns="http://www.w3.org/2000/svg" xmlns:xlink="http://www.w3.org/1999/xlink" x="0px" y="0px" viewBox="0 0 1000 1000" enable-background="new 0 0 1000 1000" xml:space="preserve">
<metadata> Svg Vector Icons : http://www.onlinewebfonts.com/icon </metadata>
<g><g><path d="M500,10c60.8,0,119.6,3.7,176.4,11c56.8,7.3,109,18,156.4,32c47.4,14,85.5,32.7,114.1,56c28.7,23.3,43,49.7,43,79.2v623.6c0,29.5-14.3,55.9-43,79.2c-28.7,23.3-66.7,42-114.1,56c-47.4,14-99.6,24.7-156.4,32c-56.8,7.3-115.7,11-176.4,11c-60.8,0-119.6-3.7-176.4-11c-56.8-7.3-109-18-156.4-32c-47.4-14-85.5-32.7-114.1-56c-28.7-23.3-43-49.7-43-79.2V188.2c0-29.5,14.3-55.9,43-79.2c28.7-23.3,66.7-42,114.1-56c47.4-14,99.6-24.7,156.4-32C380.4,13.7,439.2,10,500,10z M900.9,811.1V608.2c-45.5,23-104.1,40.4-175.7,52.2S578.4,678.2,500,678.2c-78.4,0-153.5-5.9-225.2-17.7c-71.7-11.8-130.3-29.2-175.7-52.2v203.6c1.4,5.1,7.6,11.3,18.6,18.4c11,7.2,27.9,15,50.6,23.3c22.7,8.4,49.2,16,79.3,23s67.4,12.8,111.7,17.4c44.3,4.6,91.2,7,140.6,7c49.4,0,96.3-2.3,140.6-7c44.3-4.6,81.6-10.5,111.7-17.6s56.6-14.8,79.3-23.1c22.7-8.4,39.6-16.1,50.6-23.3C893.3,822.7,899.5,816.5,900.9,811.1L900.9,811.1z M900.9,499.3V296.4c-45.5,23-104.1,40.4-175.7,52.2S578.4,366.4,500,366.4c-78.4,0-153.5-5.9-225.2-17.7c-71.7-11.8-130.3-29.2-175.7-52.2V500c1.4,5.1,7.6,11.3,18.6,18.4c11,7.2,27.9,15,50.6,23.3c22.7,8.3,49.2,16,79.3,23c30.2,7,67.4,12.8,111.7,17.4c44.3,4.6,91.2,7,140.6,7c49.4,0,96.3-2.3,140.6-7c44.3-4.6,81.5-10.4,111.5-17.4c30-7,56.4-14.6,79.2-23c22.7-8.4,39.7-16.2,50.8-23.5C893.3,511,899.5,504.6,900.9,499.3z M500,99.1c-49,0-95.5,2.3-139.6,7c-44.1,4.6-81.1,10.4-111,17.2s-56.3,14.4-79.2,22.6s-40,16-51.3,23.3s-18,13.6-19.8,19c1.9,5.3,8.5,11.7,19.8,19c11.4,7.3,28.5,15.1,51.3,23.3s49.2,15.8,79.2,22.6s66.9,12.6,111,17.2c44.1,4.6,90.6,7,139.6,7c49,0,95.5-2.3,139.6-7c44.1-4.6,81.1-10.4,111-17.2c29.9-6.8,56.3-14.4,79.2-22.6c22.9-8.2,40-16,51.3-23.3c11.4-7.3,18-13.6,19.8-19c-1.9-5.3-8.5-11.7-19.8-19c-11.4-7.3-28.5-15.1-51.3-23.3c-22.9-8.2-49.2-15.8-79.2-22.6s-66.9-12.6-111-17.2C595.5,101.4,549,99.1,500,99.1z"/></g></g>
</svg>